<svg width="27" height="26" viewBox="0 0 27 26" fill="none" xmlns="http://www.w3.org/2000/svg">
<path d="M1.58582 11.9999C1.03353 11.9999 0.585815 12.4476 0.585815 12.9999C0.585815 13.5522 1.03353 13.9999 1.58582 13.9999V11.9999ZM24.6226 13.707C25.0131 13.3165 25.0131 12.6833 24.6226 12.2928L18.2586 5.92881C17.8681 5.53829 17.2349 5.53829 16.8444 5.92881C16.4539 6.31933 16.4539 6.9525 16.8444 7.34302L22.5013 12.9999L16.8444 18.6567C16.4539 19.0473 16.4539 19.6804 16.8444 20.0709C17.2349 20.4615 17.8681 20.4615 18.2586 20.0709L24.6226 13.707ZM1.58582 12.9999V13.9999H23.9155V12.9999V11.9999H1.58582V12.9999Z" fill="#EA7D28"/>
</svg>
